<?xml version="1.0" standalone="no"?>
<!DOCTYPE svg PUBLIC "-//W3C//DTD SVG 20010904//EN"
 "http://www.w3.org/TR/2001/REC-SVG-20010904/DTD/svg10.dtd">
<svg version="1.0" xmlns="http://www.w3.org/2000/svg"
 width="512.000000pt" height="512.000000pt" viewBox="0 0 512.000000 512.000000"
 preserveAspectRatio="xMidYMid meet">

<g transform="translate(0.000000,512.000000) scale(0.100000,-0.100000)"
fill="#000000" stroke="none">
<path d="M1770 5057 c-425 -68 -809 -184 -1122 -339 -138 -68 -161 -83 -185
-120 l-28 -42 -5 -455 -5 -456 -32 -55 c-47 -80 -126 -269 -166 -398 -277
-874 -43 -1833 603 -2471 390 -385 872 -622 1415 -697 174 -23 490 -21 662 5
439 66 845 242 1178 510 118 95 297 271 380 374 515 637 676 1497 428 2279
-41 130 -117 311 -167 401 l-36 62 0 -317 c0 -311 0 -318 -21 -328 -18 -10
-41 -1 -158 59 -163 83 -365 164 -551 220 -136 41 -405 105 -493 117 -39 6
-47 10 -41 23 17 40 15 84 -7 144 -31 84 -128 226 -192 282 -45 40 -151 100
-211 119 -18 6 -17 9 12 39 33 34 39 51 23 62 -6 3 -61 13 -123 21 -159 23
-431 14 -542 -16 -114 -31 -210 -83 -283 -153 -63 -60 -63 -60 -84 -41 -28 26
-59 87 -59 119 0 14 -6 28 -14 31 -36 14 -411 -79 -671 -166 -82 -27 -160 -50
-173 -50 -13 0 -37 13 -53 29 l-29 29 0 291 c0 286 0 290 23 316 36 42 481
184 745 238 l112 23 -29 21 c-63 48 -86 148 -56 248 8 27 13 50 12 50 -1 1
-27 -3 -57 -8z m-303 -1349 c27 -25 30 -73 8 -106 -10 -13 -38 -28 -73 -38
-31 -8 -103 -29 -158 -45 -121 -35 -133 -35 -168 -8 -20 16 -26 29 -26 60 0
66 17 76 240 135 111 29 148 30 177 2z m1576 -244 c47 -6 49 -8 72 -58 13 -28
26 -58 29 -67 3 -11 22 -18 57 -23 81 -11 144 -43 194 -98 73 -81 77 -102 73
-445 l-3 -298 -29 -53 c-47 -85 -122 -134 -226 -150 l-51 -7 -30 -75 c-17 -41
-57 -115 -90 -164 l-60 -89 7 -56 c20 -167 75 -243 203 -281 l71 -21 -17 -27
c-84 -133 -233 -290 -342 -361 -121 -77 -290 -114 -431 -92 -150 24 -265 87
-401 221 -83 83 -199 228 -199 251 0 4 24 15 53 24 76 25 132 60 155 97 24 39
48 122 57 195 6 50 5 54 -38 115 -43 60 -118 203 -129 246 -4 13 -18 22 -44
27 -105 19 -184 80 -228 174 -20 44 -21 61 -21 341 0 234 3 302 14 330 48 115
123 173 254 195 26 4 37 11 37 23 0 10 11 41 25 69 l26 51 97 7 c53 3 108 8
122 10 37 5 737 -5 793 -11z m-1834 -600 c50 -42 53 -67 49 -444 l-3 -345 -28
-47 c-35 -59 -78 -85 -232 -138 -144 -50 -201 -74 -351 -146 -127 -61 -157
-64 -194 -17 -19 25 -20 40 -20 410 0 417 1 423 56 474 85 78 550 277 651 278
30 1 50 -6 72 -25z m2903 -8 c247 -89 455 -186 517 -241 61 -53 61 -56 61
-478 0 -370 -1 -385 -20 -410 -34 -43 -71 -44 -148 -4 -96 49 -282 130 -387
167 -155 55 -169 61 -198 88 -16 15 -37 44 -48 64 -18 35 -19 63 -19 398 0
394 1 404 58 434 42 23 83 19 184 -18z"/>
<path d="M2155 3224 c-11 -1 -69 -8 -130 -14 -121 -14 -171 -33 -204 -79 -36
-50 -43 -116 -39 -373 3 -267 6 -279 68 -332 39 -32 77 -42 225 -57 135 -14
181 -9 215 23 l23 21 -27 20 c-15 10 -37 38 -49 61 -21 39 -22 55 -25 316 -2
178 0 288 7 311 6 20 28 53 48 73 l37 36 -64 -1 c-36 -1 -74 -3 -85 -5z"/>
</g>
</svg>
